Coordinates
version=1
nRows=11
nColumns=40
inDegrees=yes

Units are S.I. units (second, meters, Newtons, ...)
Angles are in degrees.

endheader
time	pelvis_tilt	pelvis_list	pelvis_rotation	pelvis_tx	pelvis_ty	pelvis_tz	hip_flexion_r	hip_adduction_r	hip_rotation_r	knee_angle_r	knee_angle_r_beta	ankle_angle_r	subtalar_angle_r	mtp_angle_r	hip_flexion_l	hip_adduction_l	hip_rotation_l	knee_angle_l	knee_angle_l_beta	ankle_angle_l	subtalar_angle_l	mtp_angle_l	lumbar_extension	lumbar_bending	lumbar_rotation	arm_flex_r	arm_add_r	arm_rot_r	elbow_flex_r	pro_sup_r	wrist_flex_r	wrist_dev_r	arm_flex_l	arm_add_l	arm_rot_l	elbow_flex_l	pro_sup_l	wrist_flex_l	wrist_dev_l
      7.12500000	     -2.74697684	     -5.34891720	      5.92051312	      1.07537109	      0.92328781	      0.45083995	     -0.18079497	     -0.47867028	    -15.22572102	     21.69431749	     21.69431749	     17.05150057	      0.50646836	     -5.29469357	     25.73446445	     -6.37489006	     -0.40089908	     27.77092007	     27.77092007	      8.03105924	    -14.57480066	      3.89683134	     -9.04149537	      5.46307724	      3.51801908	     29.55543201	    -16.55972546	     -5.45394005	     73.99268652	     45.58969220	      0.00000000	      0.00000000	     -0.11139681	    -11.10640942	    -10.19761718	     30.89085511	     46.15906160	      0.00000000	      0.00000000
      7.13914286	     -2.77831697	     -5.33224928	      5.73410793	      1.07587327	      0.92400897	      0.44699654	      0.75525244	     -1.15230815	    -14.92078809	     24.12994574	     24.12994574	     16.37175803	     -0.29525970	     -6.44851694	     25.24793183	     -6.27492232	     -0.85392641	     27.78814207	     27.78814207	      8.63130624	    -14.19011961	      3.99331953	     -8.91547075	      5.40941138	      3.58910287	     28.20119884	    -16.64863686	     -5.53427117	     71.36195918	     45.66982555	      0.00000000	      0.00000000	      0.47645112	    -11.01907415	     -9.83506711	     31.73936322	     46.11701560	      0.00000000	      0.00000000
      7.15328571	     -2.71683762	     -5.36503432	      5.54758535	      1.07629232	      0.92486753	      0.44326098	      1.63479504	     -1.69338958	    -14.36100816	     26.44330632	     26.44330632	     14.49665020	     -1.90280599	    -10.24198102	     24.67339953	     -6.24973016	     -1.30017874	     27.82725651	     27.82725651	      9.45732441	    -13.61944403	      4.47820265	     -8.88196176	      5.43185765	      2.92239939	     28.05612186	    -15.79948319	     -5.53500296	     66.16771621	     45.81964582	      0.00000000	      0.00000000	      0.13566628	    -11.36843736	     -8.35410790	     33.81148520	     45.92265328	      0.00000000	      0.00000000
      7.16742857	     -2.71407230	     -5.27905340	      5.29895597	      1.07650221	      0.92560279	      0.43954129	      3.01897817	     -2.56153638	    -13.96248869	     29.69689247	     29.69689247	     13.59139575	     -2.72364395	    -11.15142915	     24.03658249	     -6.08539076	     -1.81205624	     27.63737116	     27.63737116	      9.85958716	    -13.27816333	      4.27927757	     -8.96366631	      5.33974645	      3.00580534	     26.31953333	    -15.95925598	     -5.29007126	     64.70537140	     45.84799493	      0.00000000	      0.00000000	      0.84006853	    -11.33967826	     -8.23566011	     34.63025043	     45.92199510	      0.00000000	      0.00000000
      7.18157143	     -2.74321655	     -5.32611000	      5.02293805	      1.07652890	      0.92617950	      0.43614601	      4.51962807	     -3.14872068	    -13.21907726	     32.78631623	     32.78631623	     11.20040986	     -4.84943475	    -15.09880482	     23.50003800	     -6.09104727	     -2.32191889	     27.50753785	     27.50753785	     10.19501749	    -12.90343942	      3.82127254	     -8.91370701	      5.35599692	      2.59938460	     25.77698298	    -15.55479028	     -4.75068943	     60.19313858	     45.93751512	      0.00000000	      0.00000000	      0.52418463	    -11.79704061	     -6.75656472	     37.29473867	     45.78096519	      0.00000000	      0.00000000
      7.19571429	     -2.75836572	     -5.26177604	      4.70677181	      1.07636929	      0.92673517	      0.43280674	      6.32987013	     -3.94499466	    -12.50716842	     36.53043996	     36.53043996	      9.84799526	     -5.98592911	    -15.61266696	     22.90030403	     -5.96737884	     -2.84345104	     27.29548267	     27.29548267	     10.52648834	    -12.63574086	      3.60864193	     -8.99276371	      5.28824850	      2.82742835	     23.95689539	    -15.77152201	     -4.55656230	     58.45155528	     45.97500044	      0.00000000	      0.00000000	      1.39954119	    -11.79514869	     -6.67784774	     38.20865450	     45.79394048	      0.00000000	      0.00000000
      7.20985714	     -2.71602775	     -5.27901760	      4.40950268	      1.07604511	      0.92722432	      0.42978141	      8.15996345	     -4.51339629	    -11.62527602	     40.19116524	     40.19116524	      7.86247998	     -7.76590075	    -16.80503896	     22.31032368	     -5.95123091	     -3.32737462	     27.15345411	     27.15345411	     10.74765681	    -12.38892930	      3.01101446	     -9.08716085	      5.26680881	      2.39938819	     23.42173913	    -15.24061027	     -4.22491332	     53.97940418	     46.06860014	      0.00000000	      0.00000000	      1.44188602	    -12.29181985	     -5.47399582	     40.51432334	     45.72402622	      0.00000000	      0.00000000
      7.22400000	     -2.66453289	     -5.22236854	      4.05948224	      1.07561466	      0.92766171	      0.42691867	     10.11970708	     -5.14570143	    -10.72417188	     43.98435763	     43.98435763	      6.18383350	     -8.97736091	    -16.61700322	     21.69129098	     -5.84587799	     -3.78449576	     26.99265836	     26.99265836	     11.08230735	    -12.26154447	      2.81305341	     -9.25626828	      5.18894504	      2.62158634	     21.59028481	    -15.38338387	     -4.01779325	     52.25342864	     46.10406478	      0.00000000	      0.00000000	      2.39187437	    -12.40197107	     -5.44218033	     41.46704456	     45.74680898	      0.00000000	      0.00000000
      7.23814286	     -2.54330035	     -5.10963555	      3.72098601	      1.07504787	      0.92810655	      0.42418223	     12.04047843	     -5.77727888	     -9.83495913	     47.64698353	     47.64698353	      4.45817235	    -10.07233088	    -16.19805211	     21.04143016	     -5.68435105	     -4.23522468	     26.90182090	     26.90182090	     11.39751242	    -12.15737728	      2.61278847	     -9.57096940	      5.09525205	      2.63260114	     19.87953644	    -15.28798437	     -3.81407692	     50.58900003	     46.14075264	      0.00000000	      0.00000000	      3.35489608	    -12.62581350	     -5.38148013	     42.35974810	     45.76287654	      0.00000000	      0.00000000
      7.25228571	     -2.43914638	     -5.22416169	      3.38843175	      1.07439346	      0.92853040	      0.42195689	     14.05381373	     -5.94754750	     -8.81645368	     51.22437488	     51.22437488	      3.72329993	    -10.64629875	    -12.45237871	     20.44648931	     -5.79185876	     -4.60684279	     26.78445727	     26.78445727	     11.55984578	    -12.10626035	      1.93203704	     -9.68822898	      5.11779686	      2.16673585	     19.78080485	    -14.65857753	     -3.53793606	     44.75683478	     46.28426182	      0.00000000	      0.00000000	      3.26521200	    -13.50119168	     -3.58884119	     45.13028976	     45.66946213	      0.00000000	      0.00000000
      7.26642857	     -2.33943591	     -5.17305796	      3.06759435	      1.07367103	      0.92896978	      0.41972450	     15.91244728	     -6.32538663	     -8.01650319	     54.21980239	     54.21980239	      2.11678826	    -11.48858493	    -11.83685643	     19.80842533	     -5.68466961	     -4.96119908	     26.60603511	     26.60603511	     11.87637624	    -12.07120456	      1.81269580	     -9.92844181	      5.03636450	      2.07579765	     17.92569018	    -14.50685128	     -3.34960899	     43.48581237	     46.30548104	      0.00000000	      0.00000000	      4.27786914	    -13.75962097	     -3.65562715	     45.90021535	     45.70046629	      0.00000000	      0.00000000
